HIERARCHY
ROOT Hips
{
  OFFSET 5.84602e-005 68.8428 3.50346
  CHANNELS 6 Xposition Yposition Zposition Zrotation Xrotation Yrotation
  JOINT Spine
  {
    OFFSET 0 8.597 -4.6522
    CHANNELS 3 Zrotation Xrotation Yrotation
    JOINT Spine1
    {
      OFFSET 0 7.8454 0.4098
      CHANNELS 3 Zrotation Xrotation Yrotation
      JOINT Spine2
      {
        OFFSET 0 9.7078 -2.1609
        CHANNELS 3 Zrotation Xrotation Yrotation
        JOINT Neck
        {
          OFFSET 0 21.8761 -0.4549
          CHANNELS 3 Zrotation Xrotation Yrotation
          JOINT Head
          {
            OFFSET 0 12.3537 3.3602
            CHANNELS 3 Zrotation Xrotation Yrotation
            End Site
            {
              OFFSET 0.0001 18.9506 0.5657
            }
          }
        }
        JOINT LeftShoulder
        {
          OFFSET 2.2086 21.1115 7.2329
          CHANNELS 3 Zrotation Xrotation Yrotation
          JOINT LeftArm
          {
            OFFSET 13.1193 3.0282 -4.8998
            CHANNELS 3 Zrotation Xrotation Yrotation
            JOINT LeftForeArm
            {
              OFFSET 27.4081 -0.0973053 -0.2375
              CHANNELS 3 Zrotation Xrotation Yrotation
              JOINT LeftHand
              {
                OFFSET 22.8641 0.0662994 -0.1369
                CHANNELS 3 Zrotation Xrotation Yrotation
                JOINT LeftHandIndex1
                {
                  OFFSET 8.8614 0.775009 2.4612
                  CHANNELS 3 Zrotation Xrotation Yrotation
                  JOINT LeftHandIndex2
                  {
                    OFFSET 3.3146 -0.808304 0.5841
                    CHANNELS 3 Zrotation Xrotation Yrotation
                    JOINT LeftHandIndex3
                    {
                      OFFSET 2.2628 -0.552002 0.3989
                      CHANNELS 3 Zrotation Xrotation Yrotation
                      End Site
                      {
                        OFFSET 1.6102 -0.4807 0.2612
                      }
                    }
                  }
                }
                JOINT LeftHandMiddle1
                {
                  OFFSET 8.9937 0.895004 0.2143
                  CHANNELS 3 Zrotation Xrotation Yrotation
                  JOINT LeftHandMiddle2
                  {
                    OFFSET 4.0984 0.0113983 -0.0242
                    CHANNELS 3 Zrotation Xrotation Yrotation
                    JOINT LeftHandMiddle3
                    {
                      OFFSET 2.2716 0.00689697 -0.0138001
                      CHANNELS 3 Zrotation Xrotation Yrotation
                      End Site
                      {
                        OFFSET 2.0404 -0.1441 0.0027
                      }
                    }
                  }
                }
                JOINT LeftHandRing1
                {
                  OFFSET 8.5234 0.597198 -2.0164
                  CHANNELS 3 Zrotation Xrotation Yrotation
                  JOINT LeftHandRing2
                  {
                    OFFSET 3.7188 -0.188293 -0.2328
                    CHANNELS 3 Zrotation Xrotation Yrotation
                    JOINT LeftHandRing3
                    {
                      OFFSET 2.1191 -0.106598 -0.1332
                      CHANNELS 3 Zrotation Xrotation Yrotation
                      End Site
                      {
                        OFFSET 1.8737 -0.2304 -0.0886
                      }
                    }
                  }
                }
                JOINT LeftHandPinky1
                {
                  OFFSET 7.9094 -0.601089 -3.4825
                  CHANNELS 3 Zrotation Xrotation Yrotation
                  JOINT LeftHandPinky2
                  {
                    OFFSET 2.2874 -0.477005 -0.6314
                    CHANNELS 3 Zrotation Xrotation Yrotation
                    JOINT LeftHandPinky3
                    {
                      OFFSET 1.6774 -0.349396 -0.4633
                      CHANNELS 3 Zrotation Xrotation Yrotation
                      End Site
                      {
                        OFFSET 1.4888 -0.4091 -0.3416
                      }
                    }
                  }
                }
                JOINT LeftHandThumb1
                {
                  OFFSET 1.833 -1.3875 1.3896
                  CHANNELS 3 Zrotation Xrotation Yrotation
                  JOINT LeftHandThumb2
                  {
                    OFFSET 3.4129 -1.121 2.5732
                    CHANNELS 3 Zrotation Xrotation Yrotation
                    JOINT LeftHandThumb3
                    {
                      OFFSET 2.2474 -0.804199 1.6192
                      CHANNELS 3 Zrotation Xrotation Yrotation
                      End Site
                      {
                        OFFSET 1.6527 -0.5689 1.1317
                      }
                    }
                  }
                }
              }
            }
          }
        }
        JOINT RightShoulder
        {
          OFFSET -2.2086 21.1115 7.2329
          CHANNELS 3 Zrotation Xrotation Yrotation
          JOINT RightArm
          {
            OFFSET -13.1216 3.0287 -4.9007
            CHANNELS 3 Zrotation Xrotation Yrotation
            JOINT RightForeArm
            {
              OFFSET -27.4081 -0.0973053 -0.2375
              CHANNELS 3 Zrotation Xrotation Yrotation
              JOINT RightHand
              {
                OFFSET -22.8641 0.0664063 -0.1369
                CHANNELS 3 Zrotation Xrotation Yrotation
                JOINT RightHandIndex1
                {
                  OFFSET -8.8614 0.774994 2.4612
                  CHANNELS 3 Zrotation Xrotation Yrotation
                  JOINT RightHandIndex2
                  {
                    OFFSET -3.3146 -0.808304 0.5841
                    CHANNELS 3 Zrotation Xrotation Yrotation
                    JOINT RightHandIndex3
                    {
                      OFFSET -2.2628 -0.552002 0.3989
                      CHANNELS 3 Zrotation Xrotation Yrotation
                      End Site
                      {
                        OFFSET -1.6102 -0.4807 0.2612
                      }
                    }
                  }
                }
                JOINT RightHandMiddle1
                {
                  OFFSET -8.9937 0.894989 0.2143
                  CHANNELS 3 Zrotation Xrotation Yrotation
                  JOINT RightHandMiddle2
                  {
                    OFFSET -4.0984 0.0113983 -0.0242
                    CHANNELS 3 Zrotation Xrotation Yrotation
                    JOINT RightHandMiddle3
                    {
                      OFFSET -2.2716 0.00691223 -0.0138001
                      CHANNELS 3 Zrotation Xrotation Yrotation
                      End Site
                      {
                        OFFSET -2.0404 -0.1441 0.0027
                      }
                    }
                  }
                }
                JOINT RightHandRing1
                {
                  OFFSET -8.5234 0.597198 -2.0164
                  CHANNELS 3 Zrotation Xrotation Yrotation
                  JOINT RightHandRing2
                  {
                    OFFSET -3.7188 -0.188309 -0.2328
                    CHANNELS 3 Zrotation Xrotation Yrotation
                    JOINT RightHandRing3
                    {
                      OFFSET -2.1191 -0.106598 -0.1332
                      CHANNELS 3 Zrotation Xrotation Yrotation
                      End Site
                      {
                        OFFSET -1.8737 -0.2304 -0.0886
                      }
                    }
                  }
                }
                JOINT RightHandPinky1
                {
                  OFFSET -7.9094 -0.601105 -3.4825
                  CHANNELS 3 Zrotation Xrotation Yrotation
                  JOINT RightHandPinky2
                  {
                    OFFSET -2.2874 -0.477005 -0.6314
                    CHANNELS 3 Zrotation Xrotation Yrotation
                    JOINT RightHandPinky3
                    {
                      OFFSET -1.6774 -0.349396 -0.4633
                      CHANNELS 3 Zrotation Xrotation Yrotation
                      End Site
                      {
                        OFFSET -1.4888 -0.4091 -0.3416
                      }
                    }
                  }
                }
                JOINT RightHandThumb1
                {
                  OFFSET -1.833 -1.38751 1.3896
                  CHANNELS 3 Zrotation Xrotation Yrotation
                  JOINT RightHandThumb2
                  {
                    OFFSET -3.41299 -1.12099 2.5732
                    CHANNELS 3 Zrotation Xrotation Yrotation
                    JOINT RightHandThumb3
                    {
                      OFFSET -2.24741 -0.804108 1.6192
                      CHANNELS 3 Zrotation Xrotation Yrotation
                      End Site
                      {
                        OFFSET -1.6527 -0.5689 1.1317
                      }
                    }
                  }
                }
              }
            }
          }
        }
      }
    }
  }
  JOINT RightUpLeg
  {
    OFFSET -9.1966 3.8861 -0.7581
    CHANNELS 3 Zrotation Xrotation Yrotation
    JOINT RightLeg
    {
      OFFSET -0.7359 -41.0265 0
      CHANNELS 3 Zrotation Xrotation Yrotation
      JOINT RightFoot
      {
        OFFSET 0 -40.2855 0
        CHANNELS 3 Zrotation Xrotation Yrotation
        JOINT RightToeBase
        {
          OFFSET 0 -5.6122 11.7359
          CHANNELS 3 Zrotation Xrotation Yrotation
          End Site
          {
            OFFSET 0 0 7.8731
          }
        }
      }
    }
  }
  JOINT LeftUpLeg
  {
    OFFSET 9.1965 3.8864 -0.7581
    CHANNELS 3 Zrotation Xrotation Yrotation
    JOINT LeftLeg
    {
      OFFSET 0.7359 -41.0268 0
      CHANNELS 3 Zrotation Xrotation Yrotation
      JOINT LeftFoot
      {
        OFFSET 0 -40.2855 0
        CHANNELS 3 Zrotation Xrotation Yrotation
        JOINT LeftToeBase
        {
          OFFSET 0 -5.6122 11.7359
          CHANNELS 3 Zrotation Xrotation Yrotation
          End Site
          {
            OFFSET 0 0 7.8731
          }
        }
      }
    }
  }
}
MOTION
Frames:	6
Frame Time:	0.0333333
5.84602e-005 68.8428 3.50346 0 0 -0 0 0 -0 0 0 -0 0 0 -0 0 0 -0 0 0 -0 0 0 -0 0 0 -0 0 0 -0 0 0 -0 0 0 -0 0 0 -0 0 0 -0 0 0 -0 -0.0146107 -8.87603e-005 -2.63497e-007 2.99804e-018 -2.42657e-020 -1.42182e-022 0 0 -0 -0.0187562 -0.001176 5.858e-005 5.06224e-018 3.88251e-019 1.21329e-020 0 0 -0 -0.012269 -0.00324817 0.000675346 -1.74678e-018 3.88251e-019 -0 0 0 -0 0 0 -0 0 0 -0 0 0 -0 0 0 -0 0 0 -0 0 0 -0 0 0 -0 0 0 -0 0 0 -0 0 0 -0 0.0149955 -9.10982e-005 2.64101e-007 -9.69331e-018 1.21329e-020 -4.7394e-023 0 0 -0 0.0189956 -0.00119102 -5.96516e-005 -5.41541e-019 0 2.42657e-020 0 0 -0 0.0122698 -0.00324857 -0.000673756 -2.00796e-019 0 -1.94126e-019 0 0 -0 0 0 -0 0 0 -0 3.39842 1.33031 -0.0637918 -5.65207e-008 0.834868 -0.000436188 -3.39935 -2.16518 -0.0642563 -8.89002e-024 -1.18485e-023 -1.48106e-024 -3.39844 1.35642 0.0640283 -3.18788e-007 0.782166 -0.000588827 3.39931 -2.13858 0.0634662 1.1399e-023 0 -0 
4.57323 32.384 0.120072 8.76809 8.1839 132.705 -0.458372 15.5263 0.0943132 -1.00334 31.0512 0.343538 -1.00335 31.0512 0.343544 7.32668e-005 -14.0518 -4.36206e-006 -6.96314e-007 -1.44516 -1.84945e-006 -4.39314 -16.6115 5.38893 -29.1396 48.4825 -65.0596 33.252 -13.5563 -14.8558 16.669 15.6338 -0.0613619 -3.53113e-031 6.36111e-015 3.18055e-015 -3.18055e-015 0 -0 3.18055e-015 6.36111e-015 -0 -3.53113e-031 6.36111e-015 3.18055e-015 -0.0146237 -9.15797e-005 -3.30161e-006 -0 -1.27222e-014 -0 -3.53113e-031 6.36111e-015 3.18055e-015 -0.018739 -0.00117616 5.97608e-005 -0 0 3.18055e-015 -3.53113e-031 6.36111e-015 3.18055e-015 -0.0122538 -0.00324238 0.000668191 -1.86574e-006 1.17785e-007 1.63692e-006 -3.53113e-031 6.36111e-015 3.18055e-015 -3.18055e-015 0 -0 3.18055e-015 6.36111e-015 -0 3.86605 -15.9426 -6.20179 28.8011 47.4494 64.2749 -33.7633 -14.0144 15.6819 -12.505 13.3114 -2.23953 1.19271e-014 0 7.95139e-015 8.74653e-015 -3.18055e-015 1.59028e-015 1.35174e-014 -9.54166e-015 1.59028e-015 1.19271e-014 0 7.95139e-015 0.0149859 -9.1339e-005 -1.40218e-006 7.95139e-015 3.18055e-015 -0 1.19271e-014 0 7.95139e-015 0.0189645 -0.00118813 -5.97054e-005 -3.18055e-015 0 -1.59028e-015 1.19271e-014 0 7.95139e-015 0.0123032 -0.00325902 -0.000681504 -1.59028e-015 0 -0 1.19271e-014 0 7.95139e-015 8.74653e-015 -3.18055e-015 1.59028e-015 1.35174e-014 -9.54166e-015 1.59028e-015 -24.9018 -8.3868 2.17337 -73.7753 86.474 73.6876 11.8139 31.0001 5.35279 -1.34584e-006 -7.0704e-006 -1.27428e-006 26.2018 -8.7561 -3.10715 55.0606 86.0185 -55.006 -11.623 32.8829 -6.55164 -5.74751e-007 2.67636e-007 5.65994e-007 
-0.278688 15.8356 -0.372871 -3.97613 16.308 -166.097 -0.670979 22.3204 0.0645876 -1.57781 44.638 0.506713 -1.5778 44.638 0.506707 -1.80237e-005 -20.4883 3.84523e-006 -7.18929e-007 -2.28335 6.95277e-007 -5.23785 -23.8243 8.13008 -23.2759 35.589 -97.856 45.4694 -18.7429 -21.8101 24.463 22.519 -0.306433 1.83622e-006 1.2142e-006 1.7113e-007 1.91596e-006 9.93821e-007 -4.56967e-007 1.83622e-006 1.2142e-006 1.71131e-007 1.83622e-006 1.2142e-006 1.7113e-007 -0.0146167 -8.80731e-005 -3.80495e-006 1.83715e-006 1.21418e-006 1.71284e-007 1.83622e-006 1.2142e-006 1.7113e-007 -0.0187727 -0.00117528 5.26508e-005 1.83742e-006 1.21424e-006 1.71307e-007 1.83622e-006 1.2142e-006 1.7113e-007 -0.0122762 -0.0032498 0.000679622 1.83701e-006 1.21438e-006 1.71165e-007 1.83622e-006 1.2142e-006 1.7113e-007 1.91596e-006 9.93821e-007 -4.56967e-007 1.83622e-006 1.2142e-006 1.71131e-007 4.37787 -22.8331 -9.31741 23.1792 34.9965 96.3788 -46.0074 -19.2775 23.0698 -18.0383 19.1817 -3.09917 -3.18055e-015 -6.36111e-015 -0 5.73808e-031 -1.03368e-014 3.18055e-015 3.18055e-015 -3.97569e-015 1.59028e-015 -3.18055e-015 -6.36111e-015 -0 0.0149614 -8.95925e-005 -2.44369e-007 -4.03671e-007 1.676e-007 -4.99074e-007 -3.18055e-015 -6.36111e-015 -0 0.0189986 -0.00119327 -6.53433e-005 -6.36111e-015 -7.15625e-015 3.18055e-015 -3.18055e-015 -6.36111e-015 -0 0.0122359 -0.00324035 -0.000679302 3.18055e-015 -5.56597e-015 4.77083e-015 -3.18055e-015 -6.36111e-015 -0 5.73808e-031 -1.03368e-014 3.18055e-015 3.18055e-015 -3.97569e-015 1.59028e-015 -37.3539 -13.3385 1.58616 -170.94 52.1103 167.581 16.2865 46.9431 9.42246 -1.90404e-006 1.89116e-006 -1.05038e-006 39.1201 -13.8922 -3.19252 170.647 54.058 -167.519 -14.8489 49.6938 -12.1164 -2.56545e-006 -2.49708e-006 2.37043e-007 
1.02215 19.2872 -0.498356 -5.21482e-015 14.4023 180 -0.620332 20.3808 0.0648646 -1.41786 40.7592 0.43034 -1.41786 40.7592 0.43034 -2.01129e-006 -19.3091 -1.09583e-006 2.31564e-007 -2.51469 -9.42089e-008 -5.05498 -21.9092 7.34218 -22.946 39.7255 -93.206 42.0031 -17.2395 -19.4012 23.3331 20.6541 -0.717676 1.30227e-006 7.60634e-007 2.5445e-006 0 7.95139e-015 -0 -2.2429e-006 5.53862e-007 -1.99802e-006 1.30227e-006 7.60634e-007 2.5445e-006 -0.0146206 -8.91638e-005 -1.42815e-006 -4.70314e-007 6.57213e-007 2.73322e-007 1.30227e-006 7.60634e-007 2.5445e-006 -0.0187637 -0.00117756 5.71652e-005 -4.7031e-007 6.57204e-007 2.7335e-007 1.30227e-006 7.60634e-007 2.5445e-006 -0.0122612 -0.0032457 0.000680263 -4.70303e-007 6.57222e-007 2.73321e-007 1.30227e-006 7.60634e-007 2.5445e-006 0 7.95139e-015 -0 -2.2429e-006 5.53862e-007 -1.99802e-006 4.29622 -21.0157 -8.42121 22.9156 39.0634 91.8068 -42.5742 -17.7266 20.5269 -17.3962 17.6449 -2.35387 3.54694e-006 -5.85682e-007 -2.55742e-007 1.28794e-006 4.825e-006 4.0957e-006 3.07511e-006 -1.2365e-006 2.1974e-008 3.54694e-006 -5.85682e-007 -2.55742e-007 0.0149876 -8.86144e-005 6.17986e-006 3.07495e-006 -1.2365e-006 2.21332e-008 3.54694e-006 -5.85682e-007 -2.55742e-007 0.0190183 -0.00119132 -5.92423e-005 3.07491e-006 -1.23648e-006 2.21478e-008 3.54694e-006 -5.85682e-007 -2.55742e-007 0.0122557 -0.00323743 -0.000660764 3.07499e-006 -1.23645e-006 2.20261e-008 3.54694e-006 -5.85682e-007 -2.55742e-007 1.28794e-006 4.825e-006 4.0957e-006 3.07511e-006 -1.2365e-006 2.1974e-008 -34.8833 -13.5044 2.00654 -170.388 60.2742 167.771 15.1627 43.4587 9.13756 3.48361e-007 2.81257e-007 7.24279e-007 36.5345 -13.9797 -3.4343 170.07 62.0769 -167.597 -14.1523 46.0043 -11.3807 -6.36111e-015 0 -0 
1.02231 19.1018 -0.285135 -5.35348e-015 13.3351 180 -0.615913 20.028 0.0559704 -1.39696 40.0539 0.40024 -1.39696 40.0539 0.400239 -1.45438e-005 -19.5141 -1.37807e-006 2.89865e-007 -2.85674 -2.14465e-007 -5.00536 -21.6457 7.22253 -23.0341 39.5496 -93.1789 41.2868 -16.915 -18.7265 23.8275 20.3763 -1.09697 -2.01014e-006 2.23411e-007 -2.1399e-006 -2.35261e-007 3.28523e-007 1.36692e-007 -4.70523e-007 6.57045e-007 2.73383e-007 -2.01014e-006 2.23411e-007 -2.1399e-006 -0.0146093 -8.56042e-005 -6.86877e-006 -4.70518e-007 6.57011e-007 2.73467e-007 -2.01014e-006 2.23411e-007 -2.1399e-006 -0.0187508 -0.00117163 5.29068e-005 -4.70514e-007 6.57001e-007 2.73496e-007 -2.01014e-006 2.23411e-007 -2.1399e-006 -0.012263 -0.00324104 0.000662357 -4.70508e-007 6.5702e-007 2.73467e-007 -2.01014e-006 2.23411e-007 -2.1399e-006 -2.35261e-007 3.28523e-007 1.36692e-007 -4.70523e-007 6.57045e-007 2.73383e-007 4.26455 -20.7713 -8.2822 23.0014 38.9218 91.8242 -41.8812 -17.3702 19.8252 -17.8618 17.4498 -1.90837 4.72082e-007 6.50603e-007 -2.77807e-007 4.72082e-007 6.50603e-007 -2.77807e-007 4.72082e-007 6.50603e-007 -2.77807e-007 4.72082e-007 6.50603e-007 -2.77807e-007 0.015 -9.13597e-005 -2.00626e-006 4.72072e-007 6.50567e-007 -2.77893e-007 4.72082e-007 6.50603e-007 -2.77807e-007 0.0190113 -0.00118827 -5.55351e-005 4.72066e-007 6.50558e-007 -2.7792e-007 4.72082e-007 6.50603e-007 -2.77807e-007 0.0123021 -0.00325097 -0.000672428 4.72062e-007 6.50578e-007 -2.7789e-007 4.72082e-007 6.50603e-007 -2.77807e-007 4.72082e-007 6.50603e-007 -2.77807e-007 4.72082e-007 6.50603e-007 -2.77807e-007 -35.0913 -14.5978 2.06337 -171.31 60.0457 168.473 14.943 43.556 9.71917 -0 -3.18055e-015 -0 36.7256 -15.0458 -3.50188 171.071 61.8557 -168.367 -13.9409 46.0925 -11.9738 3.24455e-006 -3.32801e-008 -6.67346e-007 
1.02247 18.9185 -0.0698222 -5.49116e-015 12.2662 180 -0.611549 19.6744 0.047135 -1.37672 39.3469 0.370766 -1.37672 39.3469 0.370766 -3.19767e-005 -19.7191 -4.35562e-006 -2.53974e-007 -3.19911 1.2499e-007 -4.95524 -21.3822 7.10283 -23.1218 39.3737 -93.1522 40.5662 -16.5981 -18.0474 24.3193 20.0953 -1.47319 -2.35364e-007 3.28423e-007 1.36759e-007 -1.76556e-031 -3.18055e-015 -3.18055e-015 -2.35364e-007 3.28423e-007 1.36759e-007 -2.35364e-007 3.28423e-007 1.36759e-007 -0.0146316 -8.70537e-005 6.93844e-007 1.54366e-006 4.34764e-007 2.41869e-006 -2.35364e-007 3.28423e-007 1.36759e-007 -0.0187582 -0.00117288 5.7095e-005 -2.3536e-007 3.28401e-007 1.36815e-007 -2.35364e-007 3.28423e-007 1.36759e-007 -0.0123433 -0.00326426 0.000684019 -2.01413e-006 2.21591e-007 -2.14494e-006 -2.35364e-007 3.28423e-007 1.36759e-007 -1.76556e-031 -3.18055e-015 -3.18055e-015 -2.35364e-007 3.28423e-007 1.36759e-007 4.2323 -20.5269 -8.14325 23.0872 38.7803 91.8418 -41.1837 -17.0213 19.119 -18.3256 17.2512 -1.46474 1.41701e-006 1.95115e-006 -8.33685e-007 -2.4435e-006 -8.63625e-007 -2.05497e-006 -1.90886e-006 2.80464e-006 -2.30099e-006 1.41701e-006 1.95115e-006 -8.33685e-007 0.0149863 -9.05178e-005 1.39112e-005 1.41698e-006 1.95104e-006 -8.33942e-007 1.41701e-006 1.95115e-006 -8.33685e-007 0.0189887 -0.00119628 -5.45319e-005 -1.90704e-006 2.80414e-006 -2.30144e-006 1.41701e-006 1.95115e-006 -8.33685e-007 0.0122794 -0.00325311 -0.000676833 -1.90775e-006 2.80407e-006 -2.3013e-006 1.41701e-006 1.95115e-006 -8.33685e-007 -2.4435e-006 -8.63625e-007 -2.05497e-006 -1.90886e-006 2.80464e-006 -2.30099e-006 -35.2978 -15.6932 2.11662 -172.221 59.8116 169.161 14.7224 43.6513 10.3018 -2.89668e-006 2.49327e-007 1.39001e-006 36.9149 -16.1136 -3.56636 172.059 61.6284 -169.124 -13.7288 46.1789 -12.5679 1.00416e-005 -1.03311e-006 2.07318e-007 
